<svg width="646" height="131" viewBox="0 0 646 131" fill="none" xmlns="http://www.w3.org/2000/svg">
<path d="M70.368 81.4L43.36 80.888C38.1547 80.8027 33.8453 79.3947 30.432 76.664C27.0187 73.9333 25.312 70.4773 25.312 66.296C25.312 60.5787 29.4933 54.904 37.856 49.272C46.304 43.5547 56.288 39.0747 67.808 35.832C79.4133 32.504 89.3973 30.84 97.76 30.84C114.315 30.84 122.592 35.064 122.592 43.512C122.592 46.2427 119.648 51.32 113.76 58.744C107.957 66.168 103.605 69.88 100.704 69.88C100.107 69.88 99.5093 69.624 98.912 69.112C98.4 68.5147 98.144 67.7893 98.144 66.936C98.144 66.0827 99.168 64.5467 101.216 62.328C103.349 60.024 104.416 58.36 104.416 57.336C104.416 56.568 103.435 56.184 101.472 56.184C96.1813 56.184 87.8187 58.1893 76.384 62.2C64.9493 66.1253 59.232 69.24 59.232 71.544C59.232 72.4827 60.1707 73.08 62.048 73.336C63.9253 73.5067 67.2533 73.6773 72.032 73.848C76.8107 73.9333 80.992 74.232 84.576 74.744C88.16 75.256 91.0613 76.024 93.28 77.048C95.584 77.9867 97.3333 79.0107 98.528 80.12C99.808 81.2293 100.832 82.5093 101.6 83.96C102.709 86.264 103.264 88.568 103.264 90.872C103.264 97.016 99.04 103.203 90.592 109.432C82.2293 115.661 72.1173 120.653 60.256 124.408C48.48 128.163 37.984 130.04 28.768 130.04C9.65333 130.04 0.0959997 124.024 0.0959997 111.992C0.0959997 106.445 4.49067 101.88 13.28 98.296C16.096 100.771 22.2827 102.008 31.84 102.008C38.8373 101.581 45.28 100.6 51.168 99.064C57.056 97.4427 61.664 95.6933 64.992 93.816C68.32 91.8533 70.9227 90.0187 72.8 88.312C74.6773 86.52 75.744 85.0267 76 83.832C75.8293 82.2107 73.952 81.4 70.368 81.4ZM150.287 102.776C150.202 103.629 147.428 105.891 141.967 109.56C136.506 113.144 130.191 116.643 123.023 120.056C115.855 123.469 110.692 125.176 107.535 125.176C104.463 125.176 101.818 124.237 99.599 122.36C97.3803 120.397 96.271 118.179 96.271 115.704C96.271 110.584 98.5323 105.336 103.055 99.96C107.663 94.4987 112.954 90.104 118.927 86.776C124.986 83.3627 130.106 81.656 134.287 81.656C138.554 81.656 141.754 82.2107 143.887 83.32C146.02 84.344 147.087 86.3067 147.087 89.208C147.087 92.1093 145.21 95.48 141.455 99.32C137.786 103.075 134.628 104.952 131.983 104.952C130.276 104.952 129.423 104.44 129.423 103.416C129.423 102.733 129.85 102.136 130.703 101.624C131.642 101.112 133.135 99.9173 135.183 98.04C137.231 96.1627 138.255 94.8827 138.255 94.2C138.255 93.944 137.999 93.816 137.487 93.816C134.5 93.816 130.276 96.5467 124.815 102.008C119.354 107.469 116.623 111.565 116.623 114.296C116.623 115.661 117.348 116.344 118.799 116.344C120.335 116.344 122.767 115.491 126.095 113.784C129.423 111.992 133.519 109.603 138.383 106.616C143.247 103.629 146.02 101.965 146.703 101.624C147.471 101.197 148.068 100.984 148.495 100.984C149.69 100.984 150.287 101.581 150.287 102.776ZM202.905 116.984C199.918 119.288 196.292 121.507 192.025 123.64C187.844 125.773 184.302 126.84 181.401 126.84C178.585 126.84 176.324 125.987 174.617 124.28C172.91 122.573 172.057 120.483 172.057 118.008C172.057 113.912 175.001 108.408 180.889 101.496C181.401 100.984 181.657 100.6 181.657 100.344C181.657 100.003 181.572 99.832 181.401 99.832C181.23 99.832 180.59 100.045 179.481 100.472C178.457 100.813 175.556 102.776 170.777 106.36C165.998 109.859 161.348 113.613 156.825 117.624C152.302 121.549 149.06 123.512 147.097 123.512C145.22 123.512 143.812 122.701 142.873 121.08C142.02 119.459 141.593 117.624 141.593 115.576C141.593 109.261 146.5 99.6613 156.313 86.776C166.212 73.8907 176.537 62.4133 187.289 52.344C198.041 42.1893 204.91 37.112 207.897 37.112C209.348 37.112 210.713 37.752 211.993 39.032C213.358 40.2267 214.041 41.8907 214.041 44.024C214.041 46.072 211.481 50.68 206.361 57.848C201.241 65.016 195.524 72.568 189.209 80.504C181.273 90.4027 177.305 95.7787 177.305 96.632C177.305 96.9733 177.476 97.144 177.817 97.144C178.158 97.144 179.609 96.4613 182.169 95.096C184.729 93.6453 187.502 92.3227 190.489 91.128C193.476 89.848 195.524 89.1227 196.633 88.952C197.828 88.696 199.193 88.568 200.729 88.568C202.35 88.568 203.929 88.9093 205.465 89.592C207.086 90.2747 207.897 91.2987 207.897 92.664C207.897 93.944 204.782 98.168 198.553 105.336C192.409 112.419 189.337 116.472 189.337 117.496C189.337 118.435 189.764 118.904 190.617 118.904C192.409 118.904 195.908 117.027 201.113 113.272C203.076 111.907 204.228 111.139 204.569 110.968C204.91 110.797 205.294 110.712 205.721 110.712C206.916 110.712 207.513 111.309 207.513 112.504C207.513 113.187 205.977 114.68 202.905 116.984ZM226.687 98.168L232.959 97.528C235.86 97.528 237.311 98.9787 237.311 101.88C237.311 103.416 235.903 105.123 233.087 107C230.271 108.877 227.412 110.627 224.511 112.248C221.695 113.784 220.287 114.979 220.287 115.832C220.287 116.429 220.97 116.813 222.335 116.984C225.322 116.984 230.996 114.595 239.359 109.816C247.722 105.037 252.202 102.648 252.799 102.648C253.994 102.648 254.591 103.245 254.591 104.44C254.506 105.293 251.775 107.427 246.399 110.84C241.108 114.168 234.879 117.411 227.711 120.568C220.628 123.64 215.21 125.176 211.455 125.176C205.567 125.176 202.623 122.061 202.623 115.832C202.623 114.04 203.818 112.077 206.207 109.944C208.682 107.811 211.114 105.976 213.503 104.44C215.978 102.904 217.215 101.965 217.215 101.624C217.215 101.197 216.618 100.728 215.423 100.216C211.839 98.68 210.047 96.632 210.047 94.072C210.047 89.2933 214.015 84.7707 221.951 80.504C229.972 76.152 237.396 73.976 244.223 73.976C247.978 73.976 251.092 74.7013 253.567 76.152C256.042 77.5173 257.279 79.6507 257.279 82.552C257.279 85.368 255.274 88.0133 251.263 90.488C247.338 92.9627 244.522 94.2 242.815 94.2C242.132 94.2 241.492 94.0293 240.895 93.688C240.383 93.3467 240.127 92.9627 240.127 92.536C240.127 92.1093 241.279 91.4267 243.583 90.488C245.972 89.464 247.167 88.5253 247.167 87.672C247.167 87.2453 246.527 87.032 245.247 87.032C244.052 87.032 240.042 88.3973 233.215 91.128C226.388 93.7733 222.975 95.6507 222.975 96.76C222.975 97.6987 224.212 98.168 226.687 98.168ZM273.458 114.296C273.458 113.955 273.245 113.784 272.818 113.784C272.477 113.784 270.258 114.936 266.162 117.24C262.151 119.459 258.951 120.568 256.562 120.568C254.173 120.568 252.295 119.715 250.93 118.008C249.565 116.301 248.882 114.509 248.882 112.632C248.882 107.085 251.271 101.624 256.05 96.248C260.914 90.872 266.375 86.6907 272.434 83.704C278.493 80.7173 283.783 79.224 288.306 79.224C291.122 79.224 293.255 79.5653 294.706 80.248C296.157 80.9307 296.967 81.272 297.138 81.272H297.394C297.565 81.272 297.65 81.2293 297.65 81.144C305.245 71.928 314.418 61.9867 325.17 51.32C336.007 40.568 343.047 35.192 346.29 35.192C347.655 35.3627 348.893 36.472 350.002 38.52C351.197 40.568 351.837 42.7867 351.922 45.176C351.41 47.0533 344.285 55.032 330.546 69.112C316.807 83.1067 309.085 91.3413 307.378 93.816C305.757 96.2907 301.362 102.435 294.194 112.248C287.026 122.061 283.015 127.352 282.162 128.12C281.309 128.973 280.199 129.4 278.834 129.4C277.469 129.4 275.975 128.547 274.354 126.84C272.733 125.219 271.922 123.597 271.922 121.976C271.922 120.355 272.178 118.648 272.69 116.856L273.458 114.296ZM286.002 92.92C284.125 92.92 280.839 95.0107 276.146 99.192C271.538 103.373 269.234 106.147 269.234 107.512C269.234 108.28 269.575 108.664 270.258 108.664C272.562 108.664 275.975 106.488 280.498 102.136C285.021 97.6987 287.282 94.9253 287.282 93.816C287.282 93.2187 286.855 92.92 286.002 92.92ZM365.953 103.672C367.148 103.672 367.745 104.312 367.745 105.592C367.745 106.872 365.868 109.133 362.113 112.376C358.358 115.533 353.878 118.477 348.673 121.208C343.553 123.939 339.329 125.304 336.001 125.304C331.82 125.304 329.729 123.043 329.729 118.52C329.729 117.411 330.156 116.216 331.009 114.936C331.862 113.571 332.289 112.803 332.289 112.632C332.289 112.12 331.99 111.864 331.393 111.864C330.796 111.864 330.369 111.907 330.113 111.992C329.942 112.077 328.492 112.931 325.761 114.552C317.996 119.331 313.046 121.72 310.913 121.72C308.78 121.72 306.902 121.037 305.281 119.672C303.745 118.221 302.977 116.6 302.977 114.808C302.977 111.224 304.257 107.555 306.817 103.8C309.377 100.045 312.321 96.888 315.649 94.328C318.977 91.768 322.049 89.6773 324.865 88.056C327.766 86.4347 329.729 85.624 330.753 85.624C331.777 85.624 333.057 86.3493 334.593 87.8C336.129 89.2507 336.897 90.6587 336.897 92.024C336.897 93.304 336.428 94.328 335.489 95.096C329.174 100.643 326.017 104.483 326.017 106.616C326.017 107.725 326.529 108.28 327.553 108.28C330.028 108.28 333.569 106.275 338.177 102.264C342.785 98.168 346.54 94.456 349.441 91.128C351.745 88.7387 353.75 87.544 355.457 87.544C357.164 87.544 358.828 88.184 360.449 89.464C362.156 90.6587 363.009 91.768 363.009 92.792C363.009 93.7307 362.796 94.584 362.369 95.352C361.942 96.0347 360.236 98.296 357.249 102.136C354.262 105.891 352.342 108.28 351.489 109.304C350.721 110.328 350.337 111.181 350.337 111.864C350.337 112.547 350.508 112.888 350.849 112.888C351.19 112.888 351.489 112.888 351.745 112.888C352.086 112.803 353.153 112.12 354.945 110.84C356.822 109.56 358.785 108.152 360.833 106.616C363.478 104.653 365.185 103.672 365.953 103.672ZM389.777 95.736C383.206 104.611 379.921 110.669 379.921 113.912C379.921 115.021 380.476 115.576 381.585 115.576C384.572 115.576 390.246 113.187 398.609 108.408C406.972 103.629 411.452 101.24 412.049 101.24C413.244 101.24 413.841 101.752 413.841 102.776V103.032C413.756 103.544 411.366 105.421 406.673 108.664C401.98 111.907 396.134 115.192 389.137 118.52C382.14 121.848 376.294 123.512 371.601 123.512C364.177 123.512 360.465 119.203 360.465 110.584C360.465 102.819 364.604 93.8587 372.881 83.704C381.244 73.464 391.014 64.76 402.193 57.592C413.372 50.424 422.886 46.84 430.737 46.84C434.15 46.84 436.625 47.8213 438.161 49.784C439.697 51.7467 440.465 53.5813 440.465 55.288C440.465 58.7013 438.332 62.6693 434.065 67.192C429.884 71.7147 424.934 75.9387 419.217 79.864C413.5 83.704 407.868 87.1173 402.321 90.104C396.86 93.0053 392.678 94.8827 389.777 95.736ZM430.225 57.08C428.86 57.08 425.574 59.2987 420.369 63.736C415.249 68.1733 410.47 72.6533 406.033 77.176L399.377 83.832C398.694 84.5147 398.353 85.0693 398.353 85.496C398.353 85.8373 398.737 86.008 399.505 86.008C402.918 86.008 408.977 81.9547 417.681 73.848C426.385 65.7413 430.737 60.3227 430.737 57.592C430.737 57.2507 430.566 57.08 430.225 57.08ZM439.707 117.88C439.707 118.307 440.006 118.605 440.603 118.776C441.2 118.776 443.248 117.581 446.747 115.192C450.331 112.717 452.336 111.352 452.763 111.096C453.275 110.84 453.744 110.712 454.171 110.712C455.366 110.712 455.963 111.309 455.963 112.504C455.963 113.613 452.934 116.131 446.875 120.056C440.902 123.981 436.678 125.944 434.203 125.944C433.179 125.944 432.07 125.517 430.875 124.664C429.766 123.811 429.211 122.829 429.211 121.72C429.211 120.525 429.51 119.245 430.107 117.88C430.704 116.515 431.003 115.619 431.003 115.192C431.003 114.68 430.875 114.424 430.619 114.424C430.363 114.424 430.107 114.509 429.851 114.68C421.574 120.909 415.472 124.024 411.547 124.024C409.328 124.024 407.579 123.213 406.299 121.592C405.019 119.971 404.251 118.349 403.995 116.728L403.739 114.296C403.739 111.48 404.806 108.237 406.939 104.568C409.158 100.813 412.016 97.272 415.515 93.944C419.099 90.5307 423.451 87.672 428.571 85.368C433.776 83.064 439.067 81.912 444.443 81.912C447.344 81.912 450.032 82.68 452.507 84.216C455.067 85.752 456.347 87.544 456.347 89.592C456.347 91.64 454.342 92.8773 450.331 93.304C447.344 93.9867 442.395 96.4613 435.483 100.728C428.656 104.909 425.243 108.109 425.243 110.328C425.243 111.267 425.712 111.736 426.651 111.736C428.358 111.736 432.368 109.304 438.683 104.44C445.083 99.576 448.923 97.144 450.203 97.144C451.483 97.144 452.123 97.912 452.123 99.448C452.123 100.557 451.696 101.624 450.843 102.648C450.075 103.587 449.52 104.269 449.179 104.696C448.496 105.549 446.747 107.469 443.931 110.456C441.115 113.357 439.707 115.832 439.707 117.88ZM481.351 75.256C481.948 75.256 482.503 75.5547 483.015 76.152C483.527 76.664 483.783 77.304 483.783 78.072C483.783 78.7547 483.356 79.6507 482.503 80.76C479.175 84.856 476.956 87.4587 475.847 88.568C474.823 89.592 474.311 90.2747 474.311 90.616C474.311 90.9573 474.567 91.128 475.079 91.128C475.676 91.128 477.98 90.4027 481.991 88.952C486.002 87.416 488.647 86.648 489.927 86.648C491.207 86.648 492.53 87.2027 493.895 88.312C495.26 89.336 495.943 90.7013 495.943 92.408C495.943 94.0293 493.34 97.8267 488.135 103.8C482.93 109.688 480.327 113.528 480.327 115.32C480.327 115.661 480.455 115.832 480.711 115.832C481.138 115.832 481.906 115.576 483.015 115.064C484.124 114.467 484.807 114.168 485.063 114.168C486.002 114.168 486.471 114.509 486.471 115.192C486.471 117.837 484.38 120.483 480.199 123.128C476.018 125.773 472.476 127.096 469.575 127.096C466.759 127.096 464.455 126.285 462.663 124.664C460.871 123.128 459.975 121.037 459.975 118.392C459.975 115.747 461.255 112.803 463.815 109.56C466.46 106.232 469.148 103.885 471.879 102.52C474.695 101.155 476.103 100.045 476.103 99.192C476.103 98.936 476.06 98.7653 475.975 98.68C472.22 100.216 469.148 100.984 466.759 100.984C462.066 100.984 459.719 99.6187 459.719 96.888C459.719 93.7307 462.45 89.592 467.911 84.472C473.372 79.352 477.852 76.28 481.351 75.256Z" fill="url(#paint0_linear_152_5)" fill-opacity="0.8"/>
<path fill-rule="evenodd" clip-rule="evenodd" d="M582 0C579.342 0 577.188 2.19169 577.188 4.8954V26.1644C577.188 28.868 579.342 31.0597 582 31.0597C584.658 31.0597 586.812 28.868 586.812 26.1644V10.0044C614.589 12.4822 636.376 36.2069 636.376 65.1083C636.376 95.6595 612.031 120.426 582 120.426C551.969 120.426 527.624 95.6595 527.624 65.1083C527.624 51.4614 532.475 38.9798 540.525 29.3322C542.245 27.2711 541.997 24.1818 539.971 22.4322C537.945 20.6826 534.908 20.9352 533.188 22.9964C523.717 34.3469 518 49.0546 518 65.1083C518 101.067 546.654 130.217 582 130.217C617.346 130.217 646 101.067 646 65.1083C646 29.1499 617.346 0 582 0ZM574.691 70.7942L550.468 36.4449C549.782 35.4715 549.889 34.1358 550.722 33.2887C551.554 32.4416 552.867 32.3324 553.824 33.0307L587.589 57.6726C592.223 61.0551 592.77 67.8588 588.737 71.962C584.703 76.0652 578.015 75.5091 574.691 70.7942Z" fill="url(#paint1_linear_152_5)" fill-opacity="0.8"/>
<defs>
<linearGradient id="paint0_linear_152_5" x1="12" y1="65" x2="502" y2="65" gradientUnits="userSpaceOnUse">
<stop stop-color="#5258F7"/>
<stop offset="1" stop-color="#E507DC"/>
</linearGradient>
<linearGradient id="paint1_linear_152_5" x1="518" y1="65.1084" x2="646" y2="65.1084" gradientUnits="userSpaceOnUse">
<stop stop-color="#5258F7"/>
<stop offset="1" stop-color="#E507DC"/>
</linearGradient>
</defs>
</svg>
