<svg width="128" height="131" viewBox="0 0 128 131" fill="none" xmlns="http://www.w3.org/2000/svg">
<path fill-rule="evenodd" clip-rule="evenodd" d="M63.9999 0C61.3422 0 59.1879 2.19169 59.1879 4.8954V26.1644C59.1879 28.868 61.3422 31.0597 63.9999 31.0597C66.6575 31.0597 68.8119 28.868 68.8119 26.1644V10.0044C96.589 12.4822 118.376 36.2069 118.376 65.1083C118.376 95.6595 94.031 120.426 63.9999 120.426C33.969 120.426 9.62408 95.6595 9.62408 65.1083C9.62408 51.4614 14.4755 38.9798 22.5252 29.3322C24.245 27.2711 23.9967 24.1818 21.9706 22.4322C19.9445 20.6826 16.9078 20.9352 15.188 22.9964C5.71739 34.3469 0 49.0546 0 65.1083C0 101.067 28.6537 130.217 63.9999 130.217C99.3463 130.217 128 101.067 128 65.1083C128 29.1499 99.3463 0 63.9999 0ZM56.6906 70.7942L32.4682 36.4449C31.7818 35.4715 31.8891 34.1358 32.7218 33.2887C33.5544 32.4416 34.8675 32.3324 35.8242 33.0307L69.5887 57.6726C74.2234 61.0551 74.77 67.8588 70.7367 71.962C66.7034 76.0652 60.0155 75.5091 56.6906 70.7942Z" fill="url(#paint0_linear_153_4)" fill-opacity="0.8"/>
<defs>
<linearGradient id="paint0_linear_153_4" x1="0" y1="65.1084" x2="128" y2="65.1084" gradientUnits="userSpaceOnUse">
<stop offset="0.51" stop-color="#171718" stop-opacity="0.72"/>
<stop offset="0.64" stop-color="#5E36FA"/>
</linearGradient>
</defs>
</svg>
